<svg xmlns="http://www.w3.org/2000/svg" viewBox="0 0 200 200">
  <g transform="translate(100,100)">
    <circle cx="0" cy="0" r="8" fill="#D4A853" opacity="0.9"/>
    <path d="M18.0,0.0 L19.0,0.7 L19.8,1.4 L20.3,2.1 L20.3,2.9 L19.9,3.5 L19.0,4.0 L18.0,4.5 L16.8,4.8 L15.7,5.1 L14.9,5.4 L14.4,5.8 L14.3,6.4 L14.5,7.1 L15.0,8.0 L15.6,9.0 L16.1,10.1 L16.5,11.1 L16.5,12.0 L16.1,12.6 L15.4,13.0 L14.5,13.0 L13.3,12.9 L12.1,12.6 L11.1,12.3 L10.2,12.1 L9.6,12.2 L9.2,12.6 L9.0,13.4 L9.0,14.4 L9.0,15.6 L8.9,16.8 L8.7,17.8 L8.3,18.6 L7.7,19.0 L6.9,18.9 L6.0,18.5 L5.1,17.8 L4.2,17.0 L3.4,16.2 L2.7,15.6 L2.2,15.4 L1.6,15.5 L1.1,16.1 L0.6,17.0 L0.0,18.0 L-0.7,19.0 L-1.4,19.8 L-2.1,20.3 L-2.9,20.3 L-3.5,19.9 L-4.0,19.0 L-4.5,18.0 L-4.8,16.8 L-5.1,15.7 L-5.4,14.9 L-5.8,14.4 L-6.4,14.3 L-7.1,14.5 L-8.0,15.0 L-9.0,15.6 L-10.1,16.1 L-11.1,16.5 L-12.0,16.5 L-12.6,16.1 L-13.0,15.4 L-13.0,14.5 L-12.9,13.3 L-12.6,12.1 L-12.3,11.1 L-12.1,10.2 L-12.2,9.6 L-12.6,9.2 L-13.4,9.0 L-14.4,9.0 L-15.6,9.0 L-16.8,8.9 L-17.8,8.7 L-18.6,8.3 L-19.0,7.7 L-18.9,6.9 L-18.5,6.0 L-17.8,5.1 L-17.0,4.2 L-16.2,3.4 L-15.6,2.7 L-15.4,2.2 L-15.5,1.6 L-16.1,1.1 L-17.0,0.6 L-18.0,0.0 L-19.0,-0.7 L-19.8,-1.4 L-20.3,-2.1 L-20.3,-2.9 L-19.9,-3.5 L-19.0,-4.0 L-18.0,-4.5 L-16.8,-4.8 L-15.7,-5.1 L-14.9,-5.4 L-14.4,-5.8 L-14.3,-6.4 L-14.5,-7.1 L-15.0,-8.0 L-15.6,-9.0 L-16.1,-10.1 L-16.5,-11.1 L-16.5,-12.0 L-16.1,-12.6 L-15.4,-13.0 L-14.5,-13.0 L-13.3,-12.9 L-12.1,-12.6 L-11.1,-12.3 L-10.2,-12.1 L-9.6,-12.2 L-9.2,-12.6 L-9.0,-13.4 L-9.0,-14.4 L-9.0,-15.6 L-8.9,-16.8 L-8.7,-17.8 L-8.3,-18.6 L-7.7,-19.0 L-6.9,-18.9 L-6.0,-18.5 L-5.1,-17.8 L-4.2,-17.0 L-3.4,-16.2 L-2.7,-15.6 L-2.2,-15.4 L-1.6,-15.5 L-1.1,-16.1 L-0.6,-17.0 L-0.0,-18.0 L0.7,-19.0 L1.4,-19.8 L2.1,-20.3 L2.9,-20.3 L3.5,-19.9 L4.0,-19.0 L4.5,-18.0 L4.8,-16.8 L5.1,-15.7 L5.4,-14.9 L5.8,-14.4 L6.4,-14.3 L7.1,-14.5 L8.0,-15.0 L9.0,-15.6 L10.1,-16.1 L11.1,-16.5 L12.0,-16.5 L12.6,-16.1 L13.0,-15.4 L13.0,-14.5 L12.9,-13.3 L12.6,-12.1 L12.3,-11.1 L12.1,-10.2 L12.2,-9.6 L12.6,-9.2 L13.4,-9.0 L14.4,-9.0 L15.6,-9.0 L16.8,-8.9 L17.8,-8.7 L18.6,-8.3 L19.0,-7.7 L18.9,-6.9 L18.5,-6.0 L17.8,-5.1 L17.0,-4.2 L16.2,-3.4 L15.6,-2.7 L15.4,-2.2 L15.5,-1.6 L16.1,-1.1 L17.0,-0.6Z" fill="#D4A853" fill-opacity="0.15" stroke="#D4A853" stroke-width="3" opacity="0.85"/>
    <path d="M30.0,0.0 L31.4,1.1 L32.4,2.3 L32.8,3.4 L32.5,4.6 L31.4,5.5 L30.0,6.4 L28.3,7.1 L26.8,7.7 L25.8,8.4 L25.4,9.3 L25.6,10.4 L26.3,11.7 L27.2,13.2 L27.9,14.8 L28.2,16.3 L28.0,17.5 L27.1,18.3 L25.7,18.7 L24.0,18.7 L22.2,18.6 L20.6,18.6 L19.5,18.8 L18.8,19.5 L18.6,20.6 L18.6,22.2 L18.7,24.0 L18.7,25.7 L18.3,27.1 L17.5,28.0 L16.3,28.2 L14.8,27.9 L13.2,27.2 L11.7,26.3 L10.4,25.6 L9.3,25.4 L8.4,25.8 L7.7,26.8 L7.1,28.3 L6.4,30.0 L5.5,31.4 L4.6,32.5 L3.4,32.8 L2.3,32.4 L1.1,31.4 L0.0,30.0 L-1.0,28.6 L-1.9,27.4 L-2.8,26.9 L-3.8,27.0 L-4.9,27.6 L-6.1,28.7 L-7.5,29.9 L-8.8,30.8 L-10.2,31.2 L-11.3,31.0 L-12.1,30.0 L-12.7,28.5 L-13.1,26.8 L-13.3,25.1 L-13.7,23.7 L-14.3,22.9 L-15.3,22.6 L-16.6,22.8 L-18.2,23.3 L-19.9,23.8 L-21.6,24.0 L-22.9,23.7 L-23.7,22.9 L-24.0,21.6 L-23.8,19.9 L-23.3,18.2 L-22.8,16.6 L-22.6,15.3 L-22.9,14.3 L-23.7,13.7 L-25.1,13.3 L-26.8,13.1 L-28.5,12.7 L-30.0,12.1 L-31.0,11.3 L-31.2,10.2 L-30.8,8.8 L-29.9,7.5 L-28.7,6.1 L-27.6,4.9 L-27.0,3.8 L-26.9,2.8 L-27.4,1.9 L-28.6,1.0 L-30.0,0.0 L-31.4,-1.1 L-32.4,-2.3 L-32.8,-3.4 L-32.5,-4.6 L-31.4,-5.5 L-30.0,-6.4 L-28.3,-7.1 L-26.8,-7.7 L-25.8,-8.4 L-25.4,-9.3 L-25.6,-10.4 L-26.3,-11.7 L-27.2,-13.2 L-27.9,-14.8 L-28.2,-16.3 L-28.0,-17.5 L-27.1,-18.3 L-25.7,-18.7 L-24.0,-18.7 L-22.2,-18.6 L-20.6,-18.6 L-19.5,-18.8 L-18.8,-19.5 L-18.6,-20.6 L-18.6,-22.2 L-18.7,-24.0 L-18.7,-25.7 L-18.3,-27.1 L-17.5,-28.0 L-16.3,-28.2 L-14.8,-27.9 L-13.2,-27.2 L-11.7,-26.3 L-10.4,-25.6 L-9.3,-25.4 L-8.4,-25.8 L-7.7,-26.8 L-7.1,-28.3 L-6.4,-30.0 L-5.5,-31.4 L-4.6,-32.5 L-3.4,-32.8 L-2.3,-32.4 L-1.1,-31.4 L-0.0,-30.0 L1.0,-28.6 L1.9,-27.4 L2.8,-26.9 L3.8,-27.0 L4.9,-27.6 L6.1,-28.7 L7.5,-29.9 L8.8,-30.8 L10.2,-31.2 L11.3,-31.0 L12.1,-30.0 L12.7,-28.5 L13.1,-26.8 L13.3,-25.1 L13.7,-23.7 L14.3,-22.9 L15.3,-22.6 L16.6,-22.8 L18.2,-23.3 L19.9,-23.8 L21.6,-24.0 L22.9,-23.7 L23.7,-22.9 L24.0,-21.6 L23.8,-19.9 L23.3,-18.2 L22.8,-16.6 L22.6,-15.3 L22.9,-14.3 L23.7,-13.7 L25.1,-13.3 L26.8,-13.1 L28.5,-12.7 L30.0,-12.1 L31.0,-11.3 L31.2,-10.2 L30.8,-8.8 L29.9,-7.5 L28.7,-6.1 L27.6,-4.9 L27.0,-3.8 L26.9,-2.8 L27.4,-1.9 L28.6,-1.0Z" fill="#D4A853" fill-opacity="0.08" stroke="#D4A853" stroke-width="2.5" opacity="0.7"/>
    <path d="M43.0,0.0 L44.8,1.6 L46.0,3.2 L46.2,4.9 L45.3,6.4 L43.5,7.7 L41.3,8.8 L39.4,9.8 L38.1,10.9 L37.7,12.3 L38.3,13.9 L39.4,15.9 L40.6,18.1 L41.3,20.1 L41.1,21.8 L39.9,23.0 L37.9,23.7 L35.4,23.9 L33.1,24.1 L31.3,24.5 L30.3,25.4 L30.0,27.0 L30.2,29.2 L30.5,31.6 L30.5,33.9 L29.9,35.6 L28.5,36.4 L26.5,36.5 L24.2,35.9 L21.9,35.1 L20.0,34.6 L18.5,34.9 L17.6,36.0 L16.9,38.0 L16.3,40.3 L15.5,42.5 L14.3,44.1 L12.8,44.6 L11.0,44.1 L9.1,42.8 L7.3,41.2 L5.6,39.9 L4.1,39.3 L2.8,39.8 L1.4,41.1 L0.0,43.0 L-1.6,44.8 L-3.2,46.0 L-4.9,46.2 L-6.4,45.3 L-7.7,43.5 L-8.8,41.3 L-9.8,39.4 L-10.9,38.1 L-12.3,37.7 L-13.9,38.3 L-15.9,39.4 L-18.1,40.6 L-20.1,41.3 L-21.8,41.1 L-23.0,39.9 L-23.7,37.9 L-23.9,35.4 L-24.1,33.1 L-24.5,31.3 L-25.4,30.3 L-27.0,30.0 L-29.2,30.2 L-31.6,30.5 L-33.9,30.5 L-35.6,29.9 L-36.4,28.5 L-36.5,26.5 L-35.9,24.2 L-35.1,21.9 L-34.6,20.0 L-34.9,18.5 L-36.0,17.6 L-38.0,16.9 L-40.3,16.3 L-42.5,15.5 L-44.1,14.3 L-44.6,12.8 L-44.1,11.0 L-42.8,9.1 L-41.2,7.3 L-39.9,5.6 L-39.3,4.1 L-39.8,2.8 L-41.1,1.4 L-43.0,0.0 L-44.8,-1.6 L-46.0,-3.2 L-46.2,-4.9 L-45.3,-6.4 L-43.5,-7.7 L-41.3,-8.8 L-39.4,-9.8 L-38.1,-10.9 L-37.7,-12.3 L-38.3,-13.9 L-39.4,-15.9 L-40.6,-18.1 L-41.3,-20.1 L-41.1,-21.8 L-39.9,-23.0 L-37.9,-23.7 L-35.4,-23.9 L-33.1,-24.1 L-31.3,-24.5 L-30.3,-25.4 L-30.0,-27.0 L-30.2,-29.2 L-30.5,-31.6 L-30.5,-33.9 L-29.9,-35.6 L-28.5,-36.4 L-26.5,-36.5 L-24.2,-35.9 L-21.9,-35.1 L-20.0,-34.6 L-18.5,-34.9 L-17.6,-36.0 L-16.9,-38.0 L-16.3,-40.3 L-15.5,-42.5 L-14.3,-44.1 L-12.8,-44.6 L-11.0,-44.1 L-9.1,-42.8 L-7.3,-41.2 L-5.6,-39.9 L-4.1,-39.3 L-2.8,-39.8 L-1.4,-41.1 L-0.0,-43.0 L1.6,-44.8 L3.2,-46.0 L4.9,-46.2 L6.4,-45.3 L7.7,-43.5 L8.8,-41.3 L9.8,-39.4 L10.9,-38.1 L12.3,-37.7 L13.9,-38.3 L15.9,-39.4 L18.1,-40.6 L20.1,-41.3 L21.8,-41.1 L23.0,-39.9 L23.7,-37.9 L23.9,-35.4 L24.1,-33.1 L24.5,-31.3 L25.4,-30.3 L27.0,-30.0 L29.2,-30.2 L31.6,-30.5 L33.9,-30.5 L35.6,-29.9 L36.4,-28.5 L36.5,-26.5 L35.9,-24.2 L35.1,-21.9 L34.6,-20.0 L34.9,-18.5 L36.0,-17.6 L38.0,-16.9 L40.3,-16.3 L42.5,-15.5 L44.1,-14.3 L44.6,-12.8 L44.1,-11.0 L42.8,-9.1 L41.2,-7.3 L39.9,-5.6 L39.3,-4.1 L39.8,-2.8 L41.1,-1.4Z" fill="#D4A853" fill-opacity="0.05" stroke="#D4A853" stroke-width="2.5" opacity="0.55"/>
    <circle cx="30" cy="-20" r="3.5" fill="#D4A853" opacity="0.7"/>
    <circle cx="-22" cy="28" r="3" fill="#D4A853" opacity="0.6"/>
    <circle cx="15" cy="40" r="3.5" fill="#D4A853" opacity="0.55"/>
  </g>
</svg>
